<svg width="25" height="24" viewBox="0 0 25 24" fill="none" xmlns="http://www.w3.org/2000/svg">
<mask id="mask0_503_31780" style="mask-type:alpha" maskUnits="userSpaceOnUse" x="3" y="1" width="19" height="22">
<path fill-rule="evenodd" clip-rule="evenodd" d="M22 1H3V23H22V1ZM8.25 5C7.83579 5 7.5 5.33579 7.5 5.75V10.25C7.5 10.6642 7.83579 11 8.25 11H12.75C13.1642 11 13.5 10.6642 13.5 10.25V5.75C13.5 5.33579 13.1642 5 12.75 5H8.25ZM7.5 14.75C7.5 14.3358 7.83579 14 8.25 14H16.75C17.1642 14 17.5 14.3358 17.5 14.75C17.5 15.1642 17.1642 15.5 16.75 15.5H8.25C7.83579 15.5 7.5 15.1642 7.5 14.75ZM8.25 17.5C7.83579 17.5 7.5 17.8358 7.5 18.25C7.5 18.6642 7.83579 19 8.25 19H12.75C13.1642 19 13.5 18.6642 13.5 18.25C13.5 17.8358 13.1642 17.5 12.75 17.5H8.25Z" fill="#D9D9D9"/>
</mask>
<g mask="url(#mask0_503_31780)">
<path d="M18.75 2.75H6.25C5.69772 2.75 5.25 3.19772 5.25 3.75V20.25C5.25 20.8023 5.69772 21.25 6.25 21.25H18.75C19.3023 21.25 19.75 20.8023 19.75 20.25V3.75C19.75 3.19772 19.3023 2.75 18.75 2.75Z" fill="#121331" stroke="#121331" stroke-width="1.5" stroke-linecap="round" stroke-linejoin="round"/>
</g>
</svg>
