<svg width="430" height="430" viewBox="0 0 430 430" fill="none" xmlns="http://www.w3.org/2000/svg">
<path d="M98.3998 89.7002C98.3998 94.6002 98.4998 104.1 98.4998 111.4L98.2998 363.3C98.2998 378.2 110.4 390.3 125.3 390.3H306.3C321.2 390.3 333.3 378.2 333.2 363.3L332.7 113.1C332.7 103.9 332.7 95.6002 332.6 90.5002" stroke="#121331" stroke-width="12" stroke-miterlimit="18" stroke-linecap="round" stroke-linejoin="round"/>
<path d="M157.3 156.8V312.7M215.9 156.8V312.7M274.4 156.8V312.7" stroke="#08A88A" stroke-width="12" stroke-miterlimit="18" stroke-linecap="round" stroke-linejoin="round"/>
<path d="M76 83.5996L354.8 84.3996" stroke="#08A88A" stroke-width="12" stroke-miterlimit="18" stroke-linecap="round" stroke-linejoin="round"/>
<path d="M171.4 77.7C174.5 55.9 193.3 39 216 39C237.2 39 259.7 56.6 259.7 80.8" stroke="#08A88A" stroke-width="12" stroke-miterlimit="18" stroke-linecap="round" stroke-linejoin="round"/>
</svg>
